<svg xmlns="http://www.w3.org/2000/svg" width="400" height="400" fill="none" viewBox="0 0 400 400"><path fill="#D97757" d="m124.011 241.251 49.164-27.585.826-2.396-.826-1.333h-2.396l-8.217-.506-28.09-.759-24.363-1.012-23.603-1.266-5.938-1.265L75 197.79l.574-3.661 4.994-3.358 7.153.625 15.808 1.079 23.722 1.637 17.208 1.012 25.493 2.649h4.049l.574-1.637-1.384-1.012-1.079-1.012-24.548-16.635-26.573-17.58-13.919-10.123-7.524-5.129-3.796-4.808-1.637-10.494 6.833-7.525 9.178.624 2.345.625 9.296 7.153 19.858 15.37 25.931 19.098 3.796 3.155 1.519-1.08.185-.759-1.704-2.851-14.104-25.493-15.049-25.931-6.698-10.747-1.772-6.445c-.624-2.649-1.08-4.876-1.08-7.592l7.778-10.561L144.729 75l10.376 1.383 4.37 3.797 6.445 14.745 10.443 23.215 16.197 31.566 4.741 9.364 2.53 8.672.945 2.649h1.637v-1.519l1.332-17.782 2.464-21.832 2.395-28.091.827-7.912 3.914-9.482 7.778-5.129 6.074 2.902 4.994 7.153-.692 4.623-2.969 19.301-5.821 30.234-3.796 20.245h2.21l2.531-2.53 10.241-13.599 17.208-21.511 7.593-8.537 8.857-9.431 5.686-4.488h10.747l7.912 11.76-3.543 12.147-11.067 14.037-9.178 11.895-13.16 17.714-8.216 14.172.759 1.131 1.957-.186 29.727-6.327 16.062-2.901 19.166-3.29 8.672 4.049.944 4.116-3.408 8.419-20.498 5.062-24.042 4.808-35.801 8.469-.439.321.506.624 16.13 1.519 6.9.371h16.888l31.448 2.345 8.217 5.433 4.926 6.647-.827 5.061-12.653 6.445-17.074-4.049-39.85-9.482-13.666-3.408h-1.889v1.131l11.388 11.135 20.87 18.845 26.133 24.295 1.333 6.006-3.357 4.741-3.543-.506-22.962-17.277-8.858-7.777-20.06-16.888H238.5v1.771l4.623 6.765 24.413 36.696 1.265 11.253-1.771 3.661-6.327 2.21-6.951-1.265-14.29-20.06-14.745-22.591-11.895-20.246-1.451.827-7.018 75.601-3.29 3.863-7.592 2.902-6.327-4.808-3.357-7.778 3.357-15.37 4.049-20.06 3.29-15.943 2.969-19.807 1.772-6.58-.118-.439-1.451.186-14.931 20.498-22.709 30.689-17.968 19.234-4.302 1.704-7.458-3.864.692-6.9 4.167-6.141 24.869-31.634 14.999-19.605 9.684-11.32-.068-1.637h-.573l-66.052 42.887-11.759 1.519-5.062-4.741.625-7.778 2.395-2.531 19.858-13.665-.068.067z"/></svg>